<?xml version="1.0" encoding="utf-8"?>
<!-- Generator: Adobe Illustrator 22.0.0, SVG Export Plug-In . SVG Version: 6.00 Build 0)  -->
<svg version="1.1" id="Layer_1" xmlns="http://www.w3.org/2000/svg" xmlns:xlink="http://www.w3.org/1999/xlink" x="0px" y="0px"
	 width="131.6px" height="131.6px" viewBox="0 0 131.6 131.6" style="enable-background:new 0 0 131.6 131.6;" xml:space="preserve"
	>
<style type="text/css">
	.st0{fill:#1E5B96;}
	.st1{fill:#2B89D6;}
</style>
<g>
	<g>
		<g id="g26_2_" transform="rotate(90,40.7,44.8)">
			<g id="circle2_2_">
				<circle class="st0" cx="61.7" cy="-33.5" r="12.6"/>
			</g>
			<g id="circle4_2_">
				<circle class="st0" cx="61.7" cy="72.9" r="12.6"/>
			</g>
			<g id="circle6_2_">
				<circle class="st0" cx="114.9" cy="19.7" r="12.6"/>
			</g>
			<g id="circle8_2_">
				<circle class="st0" cx="8.5" cy="19.7" r="12.6"/>
			</g>
			<g id="g12_2_">
				<g id="polygon10_2_">
					<polygon class="st1" points="66.3,-8.9 80.2,5 100.5,5 100.5,-15.4 86.6,-29.3 86.6,-8.9 					"/>
				</g>
			</g>
			<g id="g16_2_">
				<g id="polygon14_2_">
					<polygon class="st1" points="12.7,44.6 26.6,58.5 47,58.5 47,38.2 33.1,24.3 33.1,44.6 					"/>
				</g>
			</g>
			<g id="g20_2_">
				<g id="polygon18_2_">
					<polygon class="st1" points="86.5,68.7 100.4,54.8 100.5,34.4 80.1,34.4 66.2,48.3 86.6,48.2 					"/>
				</g>
			</g>
			<g id="g24_2_">
				<g id="polygon22_2_">
					<polygon class="st1" points="33,15.1 47,1.1 47,-19.2 26.6,-19.2 12.7,-5.2 33.1,-5.3 					"/>
				</g>
			</g>
		</g>
	</g>
</g>
</svg>
